<?xml version="1.0" encoding="utf-8"?>
<!-- Generator: Adobe Illustrator 19.0.0, SVG Export Plug-In . SVG Version: 6.00 Build 0)  -->
<svg version="1.1" id="Layer_1" xmlns="http://www.w3.org/2000/svg" xmlns:xlink="http://www.w3.org/1999/xlink" x="0px" y="0px"
	 viewBox="0 0 1200 1200" style="enable-background:new 0 0 1200 1200;" xml:space="preserve">
<style type="text/css">
	.st0{fill:#B15B27;}
</style>
<g>
	<path id="XMLID_114_" class="st0" d="M458.4,202.8c-1,0-1.9,0-2.9,0c-0.1,0.2-0.2,0.5-0.4,0.7h4.2C459,203.3,458.7,203,458.4,202.8
		z"/>
	<path id="XMLID_113_" class="st0" d="M630.4,660.5c-2-0.1-3.9-0.1-5.8,0.1h9.4C632.9,660.6,631.6,660.6,630.4,660.5z"/>
	<path id="XMLID_112_" class="st0" d="M510.7,601.4h-26.2C493.1,602.6,501.7,602.5,510.7,601.4z"/>
	<path id="XMLID_111_" class="st0" d="M298.8,271.5c-2.3,0.6-4.3,2-6.8,3.3h21.5C309.3,271.8,304.5,270,298.8,271.5z"/>
	<path id="XMLID_110_" class="st0" d="M513.5,291.9c-1.5-1.2-4.9-1.5-6.7-0.6c-2.9,1.8-5.8,3.5-8.6,5.4h16
		C514.6,294.8,514.5,292.7,513.5,291.9z"/>
	<path id="XMLID_109_" class="st0" d="M648.7,536.1c0.2-2,0.4-4,0.6-6.1h-8.1c-0.9,2-1.8,4-2.5,6.1H648.7z"/>
	<path id="XMLID_108_" class="st0" d="M607.4,536.1h17.4c0.5-2,1-4,1.5-6.1h-16.2C609.3,532,608.4,534.1,607.4,536.1z"/>
	<path id="XMLID_107_" class="st0" d="M598,551.7c-0.9,1.4-1.9,2.8-2.9,4.2c-0.5,0.7-1.1,1.3-1.6,1.9h24.9c0.7-2,1.5-4.1,2.1-6.1
		H598z"/>
	<path id="XMLID_106_" class="st0" d="M632,557.8h13.7c0.4-2,0.7-4.1,1-6.1h-13.1C633,553.8,632.5,555.8,632,557.8z"/>
	<path id="XMLID_105_" class="st0" d="M758.6,578.8c-0.2,0.3-0.4,0.5-0.6,0.7h1.4C759.1,579.3,758.8,579.1,758.6,578.8z"/>
	<path id="XMLID_104_" class="st0" d="M619.8,579.6H640c0.7-2,1.4-4,2-6.1h-17.2C623.3,575.7,621.6,577.7,619.8,579.6z"/>
	<path id="XMLID_103_" class="st0" d="M747.6,579.6c-1.8-2.1-4.5-4.1-8.2-6.1H736c0.5,2,1.3,4.1,1.9,6.1H747.6z"/>
	<path id="XMLID_102_" class="st0" d="M750.5,601.4h14c0.3-2.1,0.4-4.2,0.6-6.2h-13.1C751.4,597.3,750.9,599.3,750.5,601.4z"/>
	<path id="XMLID_101_" class="st0" d="M747.7,601.4c0.2-0.6,0.2-1.2,0.4-1.8c0.6-1.6,0.9-3,1.2-4.4h-12.4c-1.1,2.1-2.1,4.1-3.2,6.2
		H747.7z"/>
	<path id="XMLID_100_" class="st0" d="M718.2,623.1h39.1c1.1-1.9,2.1-4,2.9-6.1h-36C722.5,619.2,720.5,621.3,718.2,623.1z"/>
	<path id="XMLID_99_" class="st0" d="M543.9,79h112c-18.4-2-37.3-3-56.3-3C580.8,76,562.2,77.1,543.9,79z"/>
	<path id="XMLID_98_" class="st0" d="M440.3,100.8h318.9c-6.9-2.2-13.8-4.2-20.8-6.2H460.7C453.9,96.6,447,98.6,440.3,100.8z"/>
	<path id="XMLID_97_" class="st0" d="M383.9,122.5h431.6c-4.6-2-9.1-4.1-13.8-6.1H397.9C393.1,118.4,388.6,120.5,383.9,122.5z"/>
	<path id="XMLID_96_" class="st0" d="M341.2,144.3h517c-3.7-2-7.2-4.1-10.9-6.1H352C348.4,140.2,344.9,142.3,341.2,144.3z"/>
	<path id="XMLID_95_" class="st0" d="M306.3,166.1h587.2c-3.2-2.1-6.3-4.1-9.5-6.1H315.4C312.4,162,309.4,164.1,306.3,166.1z"/>
	<path id="XMLID_94_" class="st0" d="M276.4,187.9H923c-2.6-2.1-5.2-4.2-7.8-6.2H284.5C281.8,183.8,279,185.7,276.4,187.9z"/>
	<path id="XMLID_93_" class="st0" d="M462.9,209.6H949c-2.3-2.1-4.7-4.1-7.1-6.1H459.3C461.9,205.5,463.1,207.6,462.9,209.6z"/>
	<path id="XMLID_92_" class="st0" d="M453.5,205.6c0.7-0.4,1.1-1.3,1.6-2H257.4c-2.3,2-4.7,4-6.9,6.1h197.2
		C449.4,208.2,451.4,206.8,453.5,205.6z"/>
	<path id="XMLID_91_" class="st0" d="M435,225.3H233.8c-2.3,2-4.3,4-6.3,6.1h205.3C433.4,229.2,434.3,227.2,435,225.3z"/>
	<path id="XMLID_90_" class="st0" d="M450.3,231.4h521.6c-2.1-2.1-4.2-4.1-6.2-6.1H452.3C451.4,227.2,450.8,229.2,450.3,231.4z"/>
	<path id="XMLID_89_" class="st0" d="M355,247.6c0-0.2,0-0.4,0-0.6H212.7c-1.9,2-3.7,4.1-5.6,6.1h149
		C355.9,251.3,355.4,249.5,355,247.6z"/>
	<path id="XMLID_88_" class="st0" d="M450.6,253.1h541.5c-1.9-2-3.6-4.1-5.4-6.1H449.5C449.8,249.1,450.1,251.1,450.6,253.1z"/>
	<path id="XMLID_87_" class="st0" d="M430.2,253.1c0.3-1.7,0.4-3.5,0.4-5.4c0-0.2,0-0.5,0-0.7h-64.6c0.4,2,0.9,4.1,1.3,6.1H430.2z"
		/>
	<path id="XMLID_86_" class="st0" d="M371.7,274.9h50.6c0.4-2.1,1-4.1,1.8-6.1h-53.5C371,270.8,371.3,272.8,371.7,274.9z"/>
	<path id="XMLID_85_" class="st0" d="M481.6,269.1c0.2-0.2,0.4-0.2,0.5-0.3h-22.9C465.4,274.5,474.2,274.7,481.6,269.1z"/>
	<path id="XMLID_84_" class="st0" d="M488.1,271.3c-0.6,1.2-1.3,2.4-1.9,3.6h524.1c-1.7-2-3.2-4.1-4.8-6.1H488.7
		C488.7,269.8,488.4,270.5,488.1,271.3z"/>
	<path id="XMLID_83_" class="st0" d="M298.8,271.5c5.7-1.6,10.5,0.2,14.7,3.3h43c0.4-2,0.6-4.1,0.7-6.1H193.9
		c-1.7,2-3.3,4.1-4.9,6.1h103C294.5,273.5,296.5,272.2,298.8,271.5z"/>
	<path id="XMLID_82_" class="st0" d="M313.1,290.5H177.1c-1.5,2.1-3,4.1-4.4,6.2h147.9C318.1,294.5,315.6,292.4,313.1,290.5z"/>
	<path id="XMLID_81_" class="st0" d="M374.8,291c0.4,1.9,0.7,3.8,1.1,5.8h43.5c0.1-2,0.4-4.1,0.7-6.2h-45.3
		C374.7,290.7,374.8,290.8,374.8,291z"/>
	<path id="XMLID_80_" class="st0" d="M340.9,291.9c4.1,1.1,6.8,0.9,9-1.4h-13C338.2,291,339.5,291.6,340.9,291.9z"/>
	<path id="XMLID_79_" class="st0" d="M475.9,296.3c-0.1,0.1-0.1,0.3-0.2,0.4h22.5c2.8-1.9,5.7-3.6,8.6-5.4c1.8-0.9,5.2-0.7,6.7,0.6
		c0.9,0.8,1,2.9,0.8,4.8h512.3c-1.4-2-2.9-4.1-4.4-6.2H478.4C477.5,292.4,476.7,294.3,475.9,296.3z"/>
	<path id="XMLID_78_" class="st0" d="M336.9,312.3h-175c-1.4,2-2.7,4-4,6.1h183.6C340.1,316.3,338.5,314.3,336.9,312.3z"/>
	<path id="XMLID_77_" class="st0" d="M507.2,318.5h534.1c-1.3-2.1-2.6-4.1-3.9-6.1H509.1C508.5,314.4,507.9,316.4,507.2,318.5z"/>
	<path id="XMLID_76_" class="st0" d="M383.1,318.5H416c0.3-0.7,0.4-1.4,0.6-2.1c0.2-1.3,0.5-2.7,0.8-4.1h-37.5
		C380.8,314.5,381.8,316.5,383.1,318.5z"/>
	<path id="XMLID_75_" class="st0" d="M503,338.2c-0.1,0.7,0,1.3,0,2h551.5c-1.2-2-2.3-4-3.6-6.1H503.4
		C503.2,335.5,503,336.8,503,338.2z"/>
	<path id="XMLID_74_" class="st0" d="M349.8,334.8c-0.1-0.3-0.2-0.5-0.3-0.7H148.3c-1.2,2.1-2.4,4.1-3.6,6.1h207.4
		C351.4,338.5,350.5,336.7,349.8,334.8z"/>
	<path id="XMLID_73_" class="st0" d="M504.5,362h561.7c-1.1-2-2.1-4.1-3-6.1H503.9C504,357.9,504.2,359.9,504.5,362z"/>
	<path id="XMLID_72_" class="st0" d="M361.8,356.6c-0.1-0.3-0.2-0.5-0.3-0.7H136.1c-0.9,2-2,4.1-3.1,6.1h231.4
		C363.5,360.1,362.7,358.4,361.8,356.6z"/>
	<path id="XMLID_71_" class="st0" d="M368.6,377.6H125.3c-0.9,2-1.9,4.1-2.7,6.1H364C366.5,382.6,368.1,380.4,368.6,377.6z"/>
	<path id="XMLID_70_" class="st0" d="M507.4,383.8h569.2c-0.9-2.1-1.7-4.1-2.7-6.1H506.5C506.7,379.7,507.1,381.7,507.4,383.8z"/>
	<path id="XMLID_69_" class="st0" d="M348.1,399.4H115.7c-0.9,2-1.6,4.1-2.4,6.1h238.9C350.6,403.4,349.3,401.4,348.1,399.4z"/>
	<path id="XMLID_68_" class="st0" d="M511,405.5h575c-0.8-2-1.5-4.1-2.4-6.1H509.8C510.2,401.4,510.6,403.5,511,405.5z"/>
	<path id="XMLID_67_" class="st0" d="M338.2,421.3c0.1-0.1,0.2-0.1,0.2-0.1H107.3c-0.8,2-1.5,4.1-2.2,6.1H341
		C339.4,425.6,337.8,422.7,338.2,421.3z"/>
	<path id="XMLID_66_" class="st0" d="M515.7,427.3h578.6c-0.8-2-1.4-4.1-2.2-6.1H514.1C514.6,423.2,515.1,425.2,515.7,427.3z"/>
	<path id="XMLID_65_" class="st0" d="M360.8,442.9h-261c-0.6,2-1.3,4.1-1.8,6.1h270.6C366,447,363.4,444.9,360.8,442.9z"/>
	<path id="XMLID_64_" class="st0" d="M521.1,449h580.2c-0.6-2.1-1.2-4.1-1.8-6.1h-580C520,444.9,520.5,447,521.1,449z"/>
	<path id="XMLID_63_" class="st0" d="M639.4,470.8h467.9c-0.5-2-1.1-4.1-1.7-6.1H638.9C639.1,466.7,639.3,468.8,639.4,470.8z"/>
	<path id="XMLID_62_" class="st0" d="M628.9,470.8c0.6-2,1.2-4.1,1.8-6.1H525.6c0.6,2,1.3,4.1,1.8,6.1H628.9z"/>
	<path id="XMLID_61_" class="st0" d="M386.8,464.7H93.6c-0.6,2-1.2,4.1-1.7,6.1h297.4C388.7,468.6,388,466.6,386.8,464.7z"/>
	<path id="XMLID_60_" class="st0" d="M634.9,492.6h477.4c-0.4-2.1-0.9-4.1-1.4-6.1H636.5C636,488.5,635.4,490.5,634.9,492.6z"/>
	<path id="XMLID_59_" class="st0" d="M534.6,492.6h87.7c0.6-2,1.3-4.1,1.8-6.1h-91.7C533.1,488.5,533.8,490.5,534.6,492.6z"/>
	<path id="XMLID_58_" class="st0" d="M374.5,486.4H88.2c-0.4,2-0.8,4.1-1.3,6.1h291.4C376.8,490.7,375.5,488.7,374.5,486.4z"/>
	<path id="XMLID_57_" class="st0" d="M411.8,508.2H83.9c-0.4,2-0.7,4-1,6.1h336C419,510.8,415.3,509.3,411.8,508.2z"/>
	<path id="XMLID_56_" class="st0" d="M629.9,514.4h486.5c-0.4-2.1-0.8-4.1-1.1-6.1H631.3C630.9,510.3,630.4,512.3,629.9,514.4z"/>
	<path id="XMLID_55_" class="st0" d="M540.4,514.4h75.1c0.7-2,1.3-4.1,2.1-6.1h-78.6C539.5,510.2,540,512.3,540.4,514.4z"/>
	<path id="XMLID_54_" class="st0" d="M648.7,536.1h470.7c-0.2-2-0.6-4-0.8-6.1H649.2C649.1,532,648.9,534.1,648.7,536.1z"/>
	<path id="XMLID_53_" class="st0" d="M381.6,531.8c1.9-0.7,2.9-1.6,3.6-1.4c3.9,1.2,7.3,0.6,10.6-0.4H80.6c-0.3,2-0.5,4.1-0.8,6.1
		h306.6C384.8,534.7,383.1,533.3,381.6,531.8z"/>
	<path id="XMLID_52_" class="st0" d="M543.6,531.7c0.3,1.5,0.5,3,0.7,4.4h63.1c1-2,1.8-4,2.7-6.1h-66.9
		C543.3,530.5,543.6,531.1,543.6,531.7z"/>
	<path id="XMLID_51_" class="st0" d="M409.5,551.7H78.2c-0.3,2-0.4,4.1-0.6,6.1h345.6C418.5,556,414,554,409.5,551.7z"/>
	<path id="XMLID_50_" class="st0" d="M598,551.7h-46.7c2.6,2.7,6,4.8,10.6,6.1h31.7c0.6-0.6,1.1-1.2,1.6-1.9
		C596.1,554.5,597.1,553.2,598,551.7z"/>
	<path id="XMLID_49_" class="st0" d="M645.7,557.8h475.8c-0.1-2-0.2-4.1-0.4-6.1H646.7C646.5,553.8,646.1,555.8,645.7,557.8z"/>
	<path id="XMLID_48_" class="st0" d="M618.4,557.8H632c0.4-2,1-4.1,1.6-6.1h-13.1C619.9,553.8,619.1,555.8,618.4,557.8z"/>
	<path id="XMLID_47_" class="st0" d="M747.6,579.6H758c0.1-0.2,0.4-0.4,0.6-0.7c0.3,0.3,0.6,0.5,0.9,0.7h363.4c0-2,0-4-0.2-6.1
		H739.3C743.1,575.5,745.8,577.4,747.6,579.6z"/>
	<path id="XMLID_46_" class="st0" d="M427.7,576c-0.1-0.4-0.1-0.8-0.2-1.3c-5.1-0.4-10.4-0.8-15.6-1.3H76.6c-0.1,2-0.2,4.1-0.3,6.1
		h345C423.4,578.4,425.5,577.3,427.7,576z"/>
	<path id="XMLID_45_" class="st0" d="M737.9,579.6c-0.6-2-1.4-4-1.9-6.1h-94c-0.6,2.1-1.3,4.1-2,6.1H737.9z"/>
	<path id="XMLID_44_" class="st0" d="M628.7,601.4h104.9c1.1-2,2.1-4.1,3.2-6.2H632.6C631.4,597.3,630.1,599.4,628.7,601.4z"/>
	<path id="XMLID_43_" class="st0" d="M764.4,601.4h358.9c0-0.6,0-1.2,0-1.7c0-1.5,0-2.9,0-4.4H765
		C764.9,597.3,764.7,599.3,764.4,601.4z"/>
	<path id="XMLID_42_" class="st0" d="M464.6,595.2H76c0,1.5,0,2.9,0,4.4c0,0.5,0,1.1,0,1.7h408.6C477.6,600.3,471,598.3,464.6,595.2
		z"/>
	<path id="XMLID_41_" class="st0" d="M518.1,600.3c-2.4,0.4-4.9,0.8-7.4,1.1h31.7C534.4,599.5,526.4,598.8,518.1,600.3z"/>
	<path id="XMLID_40_" class="st0" d="M757.3,623.1h365.5c0-2,0.2-4.1,0.3-6.1H760.2C759.4,619.2,758.4,621.2,757.3,623.1z"/>
	<path id="XMLID_39_" class="st0" d="M570,617H76.3c0.1,2.1,0.1,4.1,0.3,6.1h498.1C573.1,621.2,571.5,619.1,570,617z"/>
	<path id="XMLID_38_" class="st0" d="M646.9,617.9c3.6,1.6,7.1,3.4,10.7,5.2h60.7c2.3-1.9,4.3-3.9,6.1-6.1h-79.6
		C645.4,617.4,646.1,617.6,646.9,617.9z"/>
	<path id="XMLID_37_" class="st0" d="M590.2,638.8H77.5c0.1,2,0.3,4.1,0.4,6.1h521.5C596.1,643.1,593.2,641,590.2,638.8z"/>
	<path id="XMLID_36_" class="st0" d="M732,644.9h389.4c0.1-2,0.3-4.1,0.4-6.1h-381C737.9,640.9,735,642.9,732,644.9z"/>
	<path id="XMLID_35_" class="st0" d="M624.6,660.6H79.5c0.2,2,0.5,4.1,0.8,6.1h528.5C613.3,663.2,618.7,661.1,624.6,660.6z"/>
	<path id="XMLID_34_" class="st0" d="M640.9,660.6H634C636.4,660.6,638.6,660.6,640.9,660.6z"/>
	<path id="XMLID_33_" class="st0" d="M705.2,663.3c1,1.3,2,2.4,2.9,3.4h411c0.2-2,0.5-4,0.7-6.1H709.2
		C708,661.3,706.9,662.2,705.2,663.3z"/>
	<path id="XMLID_32_" class="st0" d="M731,688.5h384.8c0.3-2.1,0.6-4.1,1-6.2H724.5C726.7,684.4,728.9,686.4,731,688.5z"/>
	<path id="XMLID_31_" class="st0" d="M596.5,682.3h-514c0.4,2,0.7,4.1,1,6.2h508.9C593.8,686.4,595.1,684.4,596.5,682.3z"/>
	<path id="XMLID_30_" class="st0" d="M581.7,704.1H86.4c0.4,2.1,0.9,4.1,1.3,6.2h489.8C579,708.2,580.4,706.1,581.7,704.1z"/>
	<path id="XMLID_29_" class="st0" d="M750.6,706.6c1.2,1.2,2.6,2.4,3.8,3.6h357.2c0.4-2,0.9-4.1,1.3-6.2h-365
		C748.8,704.9,749.7,705.8,750.6,706.6z"/>
	<path id="XMLID_28_" class="st0" d="M566.8,725.8H91.3c0.5,2.1,1.2,4.1,1.7,6.2h469.6C564,729.9,565.4,727.9,566.8,725.8z"/>
	<path id="XMLID_27_" class="st0" d="M780.4,732h326c0.6-2,1.1-4.1,1.6-6.2H772.6C775.2,727.9,777.9,729.9,780.4,732z"/>
	<path id="XMLID_26_" class="st0" d="M808.5,753.7h291.8c0.7-2,1.3-4.1,1.8-6.1H800.8C803.3,749.6,805.9,751.7,808.5,753.7z"/>
	<path id="XMLID_25_" class="st0" d="M552.1,747.6H97.3c0.6,2,1.2,4.1,1.8,6.1h449.1C549.5,751.7,550.8,749.6,552.1,747.6z"/>
	<path id="XMLID_24_" class="st0" d="M835.1,775.5H1093c0.7-2.1,1.5-4,2.2-6.1h-268C829.8,771.5,832.4,773.6,835.1,775.5z"/>
	<path id="XMLID_23_" class="st0" d="M538.3,769.4H104.2c0.6,2,1.4,4.1,2.1,6.1h428.2C535.9,773.4,537.1,771.4,538.3,769.4z"/>
	<path id="XMLID_22_" class="st0" d="M525.7,791.1H112.3c0.8,2.1,1.6,4.1,2.4,6.1h408C523.6,795.2,524.6,793.2,525.7,791.1z"/>
	<path id="XMLID_21_" class="st0" d="M863.8,797.2C863.8,797.2,863.8,797.2,863.8,797.2h220.9c0.9-2,1.6-4,2.4-6.1H857.8
		C859.8,793.2,861.9,795.3,863.8,797.2z"/>
	<path id="XMLID_20_" class="st0" d="M514.5,812.9H121.4c1,2,1.8,4.1,2.8,6.2h387.2C512.5,817,513.5,815,514.5,812.9z"/>
	<path id="XMLID_19_" class="st0" d="M872.1,819.1h203.1c0.9-2.1,1.8-4.1,2.8-6.2h-206C872.1,814.9,872.1,817,872.1,819.1z"/>
	<path id="XMLID_18_" class="st0" d="M851.5,840.8h213c1.1-2,2.1-4.1,3.2-6.1H861.2C858,836.7,854.9,838.8,851.5,840.8z"/>
	<path id="XMLID_17_" class="st0" d="M502.7,834.7H131.6c1.1,2.1,2.2,4.1,3.3,6.1h364.4C500.4,838.8,501.6,836.7,502.7,834.7z"/>
	<path id="XMLID_16_" class="st0" d="M722.6,862.6h330c1.3-2,2.3-4.1,3.5-6.1H722.7C722.7,858.5,722.7,860.5,722.6,862.6z"/>
	<path id="XMLID_15_" class="st0" d="M490.2,856.5H143.3c1.2,2,2.4,4.1,3.6,6.1h339.9C487.9,860.5,489,858.5,490.2,856.5z"/>
	<path id="XMLID_14_" class="st0" d="M722.5,884.3h316.7c1.3-2,2.5-4,3.9-6.1H722.5C722.5,880.3,722.5,882.3,722.5,884.3z"/>
	<path id="XMLID_13_" class="st0" d="M371.3,878.6c0.4-0.2,0.7-0.2,1.1-0.4H156.3c1.3,2,2.6,4.1,3.9,6.1h188
		C356.1,883.4,363.8,881.8,371.3,878.6z"/>
	<path id="XMLID_12_" class="st0" d="M722.5,906.1h301.7c1.5-2,3-4.1,4.4-6.2H722.5C722.5,902,722.5,904.1,722.5,906.1z"/>
	<path id="XMLID_11_" class="st0" d="M178.3,904.3c8.2-1.5,16.4-2.9,24.8-4.4h-32.2c1.1,1.7,2.2,3.5,3.6,5.2
		C175.6,904.9,177,904.6,178.3,904.3z"/>
	<path id="XMLID_10_" class="st0" d="M722.8,927.8h284.9c1.6-2,3.1-4.1,4.7-6.1H722.8C722.8,923.7,722.8,925.8,722.8,927.8z"/>
	<path id="XMLID_9_" class="st0" d="M720.9,949.6h268.3c1.9-2.1,3.7-4.1,5.4-6.1H722.3C722,945.6,721.5,947.6,720.9,949.6z"/>
	<path id="XMLID_8_" class="st0" d="M706,969.8c-0.2,0.5-0.5,1-0.7,1.5h263.2c2.1-2,4.1-4,6.1-6.1H710.4
		C708.8,966.6,707,968,706,969.8z"/>
	<path id="XMLID_7_" class="st0" d="M694.1,993.1h251c2.3-2,4.7-4,6.9-6.1H697.3C696.2,989.1,695.1,991.1,694.1,993.1z"/>
	<path id="XMLID_6_" class="st0" d="M682.8,1014.9h235.9c2.7-2,5.3-4.1,8-6.2H686C685,1010.8,683.9,1012.8,682.8,1014.9z"/>
	<path id="XMLID_5_" class="st0" d="M670.7,1036.7h217.5c3-2,6.1-4.1,9-6.1H674.2C673.1,1032.6,671.9,1034.6,670.7,1036.7z"/>
	<path id="XMLID_4_" class="st0" d="M656.6,1058.4h195.6c3.6-2,7.3-4,10.8-6.1H660.9C659.6,1054.4,658.1,1056.4,656.6,1058.4z"/>
	<path id="XMLID_3_" class="st0" d="M636.4,1080.2h171.5c4.6-2,9.1-4,13.6-6.1H642.7C640.7,1076.2,638.6,1078.2,636.4,1080.2z"/>
	<path id="XMLID_2_" class="st0" d="M620.6,1101.9h127.3c6.5-1.9,13.1-3.9,19.5-6.1H623.2C622.1,1097.8,621.2,1099.8,620.6,1101.9z"
		/>
	<path id="XMLID_1_" class="st0" d="M616.7,1122.9c20.2-0.6,40-2.5,59.5-5.3h-57.9C617.7,1119.4,617.3,1121.2,616.7,1122.9z"/>
</g>
</svg>
